<svg id="visual" viewBox="0 0 900 600" width="900" height="600" xmlns="http://www.w3.org/2000/svg" xmlns:xlink="http://www.w3.org/1999/xlink" version="1.1"><rect x="0" y="0" width="900" height="600" fill="#0c1015"></rect><defs><linearGradient id="grad1_0" x1="33.3%" y1="0%" x2="100%" y2="100%"><stop offset="20%" stop-color="#0c1015" stop-opacity="1"></stop><stop offset="80%" stop-color="#0c1015" stop-opacity="1"></stop></linearGradient></defs><defs><linearGradient id="grad2_0" x1="0%" y1="0%" x2="66.7%" y2="100%"><stop offset="20%" stop-color="#0c1015" stop-opacity="1"></stop><stop offset="80%" stop-color="#0c1015" stop-opacity="1"></stop></linearGradient></defs><g transform="translate(900, 0)"><path d="M0 297.5C-42.2 292.9 -84.5 288.4 -109.4 264.2C-134.4 240.1 -142.2 196.3 -171.1 171.1C-200.1 145.9 -250.2 139.3 -274.8 113.8C-299.4 88.4 -298.4 44.2 -297.5 0L0 0Z" fill="#132f5a"></path></g><g transform="translate(0, 600)"><path d="M0 -297.5C26.2 -264.1 52.4 -230.8 91.8 -221.7C131.3 -212.7 184 -227.8 210.3 -210.3C236.6 -192.8 236.6 -142.7 246.7 -102.2C256.8 -61.7 277.1 -30.8 297.5 0L0 0Z" fill="#132f5a"></path></g></svg>