<svg id="visual" viewBox="0 0 900 600" width="900" height="600" xmlns="http://www.w3.org/2000/svg" xmlns:xlink="http://www.w3.org/1999/xlink" version="1.1"><rect x="0" y="0" width="900" height="600" fill="#1f3b69"></rect><defs><linearGradient id="grad1_0" x1="33.3%" y1="0%" x2="100%" y2="100%"><stop offset="20%" stop-color="#0c151d" stop-opacity="1"></stop><stop offset="80%" stop-color="#0c151d" stop-opacity="1"></stop></linearGradient></defs><defs><linearGradient id="grad1_1" x1="33.3%" y1="0%" x2="100%" y2="100%"><stop offset="20%" stop-color="#0c151d" stop-opacity="1"></stop><stop offset="80%" stop-color="#102842" stop-opacity="1"></stop></linearGradient></defs><defs><linearGradient id="grad1_2" x1="33.3%" y1="0%" x2="100%" y2="100%"><stop offset="20%" stop-color="#1f3b69" stop-opacity="1"></stop><stop offset="80%" stop-color="#102842" stop-opacity="1"></stop></linearGradient></defs><defs><linearGradient id="grad2_0" x1="0%" y1="0%" x2="66.7%" y2="100%"><stop offset="20%" stop-color="#0c151d" stop-opacity="1"></stop><stop offset="80%" stop-color="#0c151d" stop-opacity="1"></stop></linearGradient></defs><defs><linearGradient id="grad2_1" x1="0%" y1="0%" x2="66.7%" y2="100%"><stop offset="20%" stop-color="#102842" stop-opacity="1"></stop><stop offset="80%" stop-color="#0c151d" stop-opacity="1"></stop></linearGradient></defs><defs><linearGradient id="grad2_2" x1="0%" y1="0%" x2="66.7%" y2="100%"><stop offset="20%" stop-color="#102842" stop-opacity="1"></stop><stop offset="80%" stop-color="#1f3b69" stop-opacity="1"></stop></linearGradient></defs><g transform="translate(900, 0)"><path d="M0 324.5C-24.5 317.3 -49 310.1 -67.2 294.4C-85.4 278.8 -97.4 254.6 -120.2 249.6C-143 244.5 -176.5 258.5 -202.3 253.7C-228.1 248.9 -246.1 225.3 -247.1 197C-248 168.7 -231.8 135.7 -237 114.1C-242.1 92.6 -268.5 82.5 -286.6 65.4C-304.8 48.3 -314.6 24.2 -324.5 0L0 0Z" fill="#153255"></path><path d="M0 216.3C-16.3 211.5 -32.6 206.7 -44.8 196.3C-57 185.8 -64.9 169.8 -80.1 166.4C-95.3 163 -117.7 172.3 -134.9 169.1C-152.1 165.9 -164.1 150.2 -164.7 131.3C-165.3 112.5 -154.6 90.4 -158 76.1C-161.4 61.7 -179 55 -191.1 43.6C-203.2 32.2 -209.8 16.1 -216.3 0L0 0Z" fill="#0e1f2f"></path><path d="M0 108.2C-8.2 105.8 -16.3 103.4 -22.4 98.1C-28.5 92.9 -32.5 84.9 -40.1 83.2C-47.7 81.5 -58.8 86.2 -67.4 84.6C-76 83 -82 75.1 -82.4 65.7C-82.7 56.2 -77.3 45.2 -79 38C-80.7 30.9 -89.5 27.5 -95.5 21.8C-101.6 16.1 -104.9 8.1 -108.2 0L0 0Z" fill="#0c151d"></path></g><g transform="translate(0, 600)"><path d="M0 -324.5C24.7 -322.2 49.3 -320 70.5 -309.1C91.8 -298.1 109.6 -278.5 127.6 -264.9C145.5 -251.3 163.6 -243.7 188.9 -236.9C214.2 -230.1 246.8 -224.2 253.7 -202.3C260.6 -180.5 241.9 -142.7 246.9 -118.9C251.8 -95.1 280.5 -85.3 297.4 -67.9C314.2 -50.4 319.4 -25.2 324.5 0L0 0Z" fill="#153255"></path><path d="M0 -216.3C16.4 -214.8 32.9 -213.3 47 -206C61.2 -198.7 73.1 -185.7 85 -176.6C97 -167.5 109.1 -162.4 125.9 -157.9C142.8 -153.4 164.5 -149.5 169.1 -134.9C173.7 -120.3 161.3 -95.1 164.6 -79.3C167.9 -63.4 187 -56.9 198.2 -45.2C209.5 -33.6 212.9 -16.8 216.3 0L0 0Z" fill="#0e1f2f"></path><path d="M0 -108.2C8.2 -107.4 16.4 -106.7 23.5 -103C30.6 -99.4 36.5 -92.8 42.5 -88.3C48.5 -83.8 54.5 -81.2 63 -79C71.4 -76.7 82.3 -74.7 84.6 -67.4C86.9 -60.2 80.6 -47.6 82.3 -39.6C83.9 -31.7 93.5 -28.4 99.1 -22.6C104.7 -16.8 106.5 -8.4 108.2 0L0 0Z" fill="#0c151d"></path></g></svg>