<svg id="visual" viewBox="0 0 900 600" width="900" height="600" xmlns="http://www.w3.org/2000/svg" xmlns:xlink="http://www.w3.org/1999/xlink" version="1.1"><rect x="0" y="0" width="900" height="600" fill="#1f3b69"></rect><defs><linearGradient id="grad1_0" x1="33.3%" y1="100%" x2="100%" y2="0%"><stop offset="20%" stop-color="#0c151d" stop-opacity="1"></stop><stop offset="80%" stop-color="#0c151d" stop-opacity="1"></stop></linearGradient></defs><defs><linearGradient id="grad1_1" x1="33.3%" y1="100%" x2="100%" y2="0%"><stop offset="20%" stop-color="#0c151d" stop-opacity="1"></stop><stop offset="80%" stop-color="#102842" stop-opacity="1"></stop></linearGradient></defs><defs><linearGradient id="grad1_2" x1="33.3%" y1="100%" x2="100%" y2="0%"><stop offset="20%" stop-color="#1f3b69" stop-opacity="1"></stop><stop offset="80%" stop-color="#102842" stop-opacity="1"></stop></linearGradient></defs><defs><linearGradient id="grad2_0" x1="0%" y1="100%" x2="66.7%" y2="0%"><stop offset="20%" stop-color="#0c151d" stop-opacity="1"></stop><stop offset="80%" stop-color="#0c151d" stop-opacity="1"></stop></linearGradient></defs><defs><linearGradient id="grad2_1" x1="0%" y1="100%" x2="66.7%" y2="0%"><stop offset="20%" stop-color="#102842" stop-opacity="1"></stop><stop offset="80%" stop-color="#0c151d" stop-opacity="1"></stop></linearGradient></defs><defs><linearGradient id="grad2_2" x1="0%" y1="100%" x2="66.7%" y2="0%"><stop offset="20%" stop-color="#102842" stop-opacity="1"></stop><stop offset="80%" stop-color="#1f3b69" stop-opacity="1"></stop></linearGradient></defs><g transform="translate(900, 600)"><path d="M-324.5 0C-317.3 -24.5 -310.1 -49 -294.4 -67.2C-278.8 -85.4 -254.6 -97.4 -249.6 -120.2C-244.5 -143 -258.5 -176.5 -253.7 -202.3C-248.9 -228.1 -225.3 -246.1 -197 -247.1C-168.7 -248 -135.7 -231.8 -114.1 -237C-92.6 -242.1 -82.5 -268.5 -65.4 -286.6C-48.3 -304.8 -24.2 -314.6 0 -324.5L0 0Z" fill="#153255"></path><path d="M-216.3 0C-211.5 -16.3 -206.7 -32.6 -196.3 -44.8C-185.8 -57 -169.8 -64.9 -166.4 -80.1C-163 -95.3 -172.3 -117.7 -169.1 -134.9C-165.9 -152.1 -150.2 -164.1 -131.3 -164.7C-112.5 -165.3 -90.4 -154.6 -76.1 -158C-61.7 -161.4 -55 -179 -43.6 -191.1C-32.2 -203.2 -16.1 -209.8 0 -216.3L0 0Z" fill="#0e1f2f"></path><path d="M-108.2 0C-105.8 -8.2 -103.4 -16.3 -98.1 -22.4C-92.9 -28.5 -84.9 -32.5 -83.2 -40.1C-81.5 -47.7 -86.2 -58.8 -84.6 -67.4C-83 -76 -75.1 -82 -65.7 -82.4C-56.2 -82.7 -45.2 -77.3 -38 -79C-30.9 -80.7 -27.5 -89.5 -21.8 -95.5C-16.1 -101.6 -8.1 -104.9 0 -108.2L0 0Z" fill="#0c151d"></path></g><g transform="translate(0, 0)"><path d="M324.5 0C322.2 24.7 320 49.3 309.1 70.5C298.1 91.8 278.5 109.6 264.9 127.6C251.3 145.5 243.7 163.6 236.9 188.9C230.1 214.2 224.2 246.8 202.3 253.7C180.5 260.6 142.7 241.9 118.9 246.9C95.1 251.8 85.3 280.5 67.9 297.4C50.4 314.2 25.2 319.4 0 324.5L0 0Z" fill="#153255"></path><path d="M216.3 0C214.8 16.4 213.3 32.9 206 47C198.7 61.2 185.7 73.1 176.6 85C167.5 97 162.4 109.1 157.9 125.9C153.4 142.8 149.5 164.5 134.9 169.1C120.3 173.7 95.1 161.3 79.3 164.6C63.4 167.9 56.9 187 45.2 198.2C33.6 209.5 16.8 212.9 0 216.3L0 0Z" fill="#0e1f2f"></path><path d="M108.2 0C107.4 8.2 106.7 16.4 103 23.5C99.4 30.6 92.8 36.5 88.3 42.5C83.8 48.5 81.2 54.5 79 63C76.7 71.4 74.7 82.3 67.4 84.6C60.2 86.9 47.6 80.6 39.6 82.3C31.7 83.9 28.4 93.5 22.6 99.1C16.8 104.7 8.4 106.5 0 108.2L0 0Z" fill="#0c151d"></path></g></svg>